<mxfile host="app.diagrams.net" modified="2023-07-19T03:29:45.622Z" agent="Mozilla/5.0 (Windows NT 10.0; Win64; x64) AppleWebKit/537.36 (KHTML, like Gecko) Chrome/114.0.0.0 Safari/537.36 Edg/114.0.1823.82" version="21.6.2" etag="noX9begEbBbQ3mXEAHHH" type="github">
  <diagram name="第 1 页" id="tFkFNZZ3tfDF9EIJ74Sw">
    <mxGraphModel>
      <root>
        <mxCell id="0" />
        <mxCell id="1" parent="0" />
      </root>
    </mxGraphModel>
  </diagram>
</mxfile>
